<?xml version="1.0" encoding="UTF-8"?>
<svg version="1.1" xmlns="http://www.w3.org/2000/svg" width="424" height="394">
<path d="M0 0 C5.56286703 5.04642049 10.58244989 10.27943848 15.3671875 16.0703125 C16.95972391 17.92878663 16.95972391 17.92878663 19.9453125 18.671875 C22.76871896 17.98662357 22.76871896 17.98662357 25.8984375 16.8359375 C27.07535156 16.43117187 28.25226563 16.02640625 29.46484375 15.609375 C30.69589844 15.17625 31.92695313 14.743125 33.1953125 14.296875 C35.61520448 13.45004111 38.03703385 12.60871945 40.4609375 11.7734375 C41.53633789 11.39525879 42.61173828 11.01708008 43.71972656 10.62744141 C57.88907949 6.42982959 73.28856512 8.32723712 86.3828125 14.984375 C94.40447882 19.3401201 100.64862387 25.44258851 107.07568359 31.83496094 C108.85211023 33.58030358 110.66073195 35.27788998 112.49609375 36.9609375 C122.79052021 46.40403845 132.63160327 56.28856481 142.45410156 66.2175293 C143.02018127 66.78787399 143.58626099 67.35821869 144.16949463 67.94584656 C145.22560536 69.01008887 146.2796439 70.07639409 147.33099365 71.14533997 C152.61220542 76.46174458 158.14333961 81.41402994 164.20239258 85.83154297 C179.6879336 97.13640746 196.24158428 110.41896745 199.51153564 130.27307129 C201.02965476 143.83317908 200.68526673 157.53275232 200.24176025 171.15002441 C199.89176461 182.18249676 200.12859608 193.1131892 200.66796875 204.13671875 C200.70709129 204.9453367 200.74621384 205.75395466 200.78652191 206.58707619 C200.98343725 210.6234151 201.18736343 214.6593576 201.3949585 218.69515991 C202.24574194 235.38011136 203.03389075 252.09725974 203.125 268.8046875 C203.13722847 270.02680939 203.13722847 270.02680939 203.14970398 271.27362061 C203.11820138 283.94836468 198.18930389 294.68995735 189.796875 304.07421875 C185.37353591 308.37264627 180.62064022 311.61006358 175.171875 314.4609375 C174.5226004 314.80345047 173.87332581 315.14596344 173.20437622 315.49885559 C165.56707892 319.4695791 157.70559579 322.9167739 149.8203125 326.359375 C148.23465223 327.05703431 146.64928937 327.75536991 145.06420898 328.4543457 C141.87128594 329.86211547 138.67741845 331.26770663 135.48291016 332.671875 C128.97668638 335.53540241 122.49171869 338.44571246 116.0078125 341.359375 C113.66927617 342.40886606 111.33073453 343.45834528 108.9921875 344.5078125 C107.84169922 345.0244043 106.69121094 345.54099609 105.50585938 346.07324219 C99.87022676 348.60355776 94.23373387 351.1319531 88.59689331 353.65957642 C86.85166056 354.44228563 85.10661119 355.22540367 83.36157227 356.00854492 C81.1059569 357.02016124 78.84458346 358.01901979 76.578125 359.00610352 C73.97394719 360.20021005 71.51873674 361.43167207 69.015625 362.80444336 C56.79294882 369.25045453 45.48319864 369.88474215 31.81005859 369.65991211 C28.28905496 369.60892234 24.77495622 369.63942496 21.25390625 369.67773438 C18.99216357 369.66886468 16.73043324 369.65536167 14.46875 369.63671875 C12.90923111 369.65326759 12.90923111 369.65326759 11.31820679 369.67015076 C4.7723503 369.50161745 1.32178833 368.23211484 -3.31445312 363.56739807 C-4.17586914 362.62911415 -4.17586914 362.62911415 -5.0546875 361.671875 C-6.06453526 360.66650038 -7.07513829 359.66188354 -8.08666992 358.65820312 C-9.03003668 357.67528828 -9.97117329 356.69022855 -10.91015625 355.703125 C-11.95433607 354.62688372 -12.99927921 353.55138258 -14.04492188 352.4765625 C-15.65852731 350.81323535 -17.26686652 349.14589864 -18.86303711 347.46582031 C-20.4276333 345.82276913 -22.01047614 344.19932997 -23.59765625 342.578125 C-24.07172409 342.06995239 -24.54579193 341.56177979 -25.03422546 341.03820801 C-26.53763252 339.45486761 -26.53763252 339.45486761 -29.0546875 337.671875 C-32.73830169 337.75514062 -35.76221375 339.30408559 -39.07421875 340.8515625 C-40.01458984 341.28597656 -40.95496094 341.72039062 -41.92382812 342.16796875 C-42.89513672 342.62300781 -43.86644531 343.07804687 -44.8671875 343.546875 C-68.17225944 354.40901061 -68.17225944 354.40901061 -82.26953125 350.86328125 C-96.30003104 345.53500998 -106.77267863 334.38965921 -117.10546875 323.94921875 C-118.41617497 322.63544488 -119.72748161 321.32226979 -121.03935242 320.00965881 C-123.76758552 317.276859 -126.49088322 314.53927424 -129.21020508 311.79760742 C-132.67738886 308.30206013 -136.15326504 304.8153225 -139.63242817 301.33170223 C-142.9807674 297.97818539 -146.32442758 294.62001811 -149.66796875 291.26171875 C-150.60927863 290.31758779 -150.60927863 290.31758779 -151.56960487 289.35438347 C-153.36320573 287.5538292 -155.15391523 285.75047898 -156.94262695 283.94506836 C-157.49713028 283.38614458 -158.05163361 282.8272208 -158.62294006 282.25135994 C-161.49903956 279.33001697 -164.21604876 276.35423037 -166.82421875 273.18701172 C-169.71946259 269.78980679 -172.89017888 267.64819398 -176.6912384 265.34674072 C-190.66589498 256.70800526 -205.29772581 244.60607575 -209.74010468 228.12973022 C-215.8119574 199.61906275 -213.75820645 168.82113367 -213.16749096 139.85429287 C-212.95215745 128.12131613 -213.40902462 116.43657462 -213.93412781 104.71595764 C-214.67595226 85.98519537 -215.37266728 68.06782982 -203.0546875 52.609375 C-194.60932146 43.75082361 -184.13821351 38.37541973 -172.89151001 33.95532227 C-168.98094906 32.41617292 -165.09446825 30.81742734 -161.203125 29.23046875 C-160.34376846 28.88172699 -159.48441193 28.53298523 -158.59901428 28.17367554 C-146.28829924 23.16525819 -134.08165194 17.90952213 -121.8671875 12.671875 C-120.65886261 12.15442719 -119.45053772 11.63697937 -118.20559692 11.10385132 C-102.32510118 4.29895141 -86.49790262 -2.6033958 -70.81958008 -9.86328125 C-43.50669217 -22.49735291 -22.99003938 -20.31340122 0 0 Z " fill="#0175C0" transform="translate(217.0546875,25.328125)"/>
<path d="M0 0 C4.66249568 3.74856833 8.89288261 7.94846747 13.13037109 12.16308594 C14.90679773 13.90842858 16.71541945 15.60601498 18.55078125 17.2890625 C28.84520771 26.73216345 38.68629077 36.61668981 48.50878906 46.5456543 C49.35790863 47.40117134 49.35790863 47.40117134 50.22418213 48.27397156 C51.28029286 49.33821387 52.3343314 50.40451909 53.38568115 51.47346497 C58.66689292 56.78986958 64.19802711 61.74215494 70.25708008 66.15966797 C85.7426211 77.46453246 102.29627178 90.74709245 105.56622314 110.60119629 C107.08434226 124.16130408 106.73995423 137.86087732 106.29644775 151.47814941 C105.94645211 162.51062176 106.18328358 173.4413142 106.72265625 184.46484375 C106.76177879 185.2734617 106.80090134 186.08207966 106.84120941 186.91520119 C107.03812475 190.9515401 107.24205093 194.9874826 107.449646 199.02328491 C108.30042944 215.70823636 109.08857825 232.42538474 109.1796875 249.1328125 C109.19191597 250.35493439 109.19191597 250.35493439 109.20439148 251.60174561 C109.17288888 264.27648968 104.24399139 275.01808235 95.8515625 284.40234375 C91.42822341 288.70077127 86.67532772 291.93818858 81.2265625 294.7890625 C80.5772879 295.13157547 79.92801331 295.47408844 79.25906372 295.82698059 C71.62176642 299.7977041 63.76028329 303.2448989 55.875 306.6875 C54.28933973 307.38515931 52.70397687 308.08349491 51.11889648 308.7824707 C47.92597344 310.19024047 44.73210595 311.59583163 41.53759766 313 C35.03137388 315.86352741 28.54640619 318.77383746 22.0625 321.6875 C19.72396367 322.73699106 17.38542203 323.78647028 15.046875 324.8359375 C13.32114258 325.6108252 13.32114258 325.6108252 11.56054688 326.40136719 C5.92491426 328.93168276 0.28842137 331.4600781 -5.34841919 333.98770142 C-7.09365194 334.77041063 -8.83870131 335.55352867 -10.58374023 336.33666992 C-12.8393556 337.34828624 -15.10072904 338.34714479 -17.3671875 339.33422852 C-19.97136531 340.52833505 -22.42657576 341.75979707 -24.9296875 343.13256836 C-37.15236368 349.57857953 -48.46211386 350.21286715 -62.13525391 349.98803711 C-65.65625754 349.93704734 -69.17035628 349.96754996 -72.69140625 350.00585938 C-74.95314893 349.99698968 -77.21487926 349.98348667 -79.4765625 349.96484375 C-81.03608139 349.98139259 -81.03608139 349.98139259 -82.62710571 349.99827576 C-83.60948212 349.97298294 -84.59185852 349.94769012 -85.60400391 349.92163086 C-86.45572174 349.9130455 -87.30743958 349.90446014 -88.18496704 349.89561462 C-96.58251684 347.22389869 -103.38389153 337.75334471 -109.45507812 331.65844727 C-110.48066056 330.63258216 -111.50646442 329.60693839 -112.5324707 328.58149719 C-115.29448212 325.81977063 -118.05341702 323.05498962 -120.81177711 320.28961682 C-123.70340072 317.39170758 -126.59788955 314.49666295 -129.49206543 311.6013031 C-134.96203601 306.12823449 -140.42945423 300.65262362 -145.89594221 295.17607683 C-152.12376611 288.93704415 -158.35445726 282.70087822 -164.58538151 276.4649421 C-177.39342958 263.64646427 -190.19790302 250.82442118 -203 238 C-201.7101271 234.1303813 -199.42257602 232.93923667 -196.1875 230.75 C-194.90200022 229.85652968 -193.61824745 228.96054235 -192.3359375 228.0625 C-191.63823242 227.57394531 -190.94052734 227.08539063 -190.22167969 226.58203125 C-186.19490715 223.7146152 -182.2581089 220.72757971 -178.3125 217.75 C-169.37188687 211.01737535 -160.37822841 204.36053258 -151.35888672 197.73388672 C-147.40320388 194.82628379 -143.45178908 191.91289158 -139.5 189 C-134.71652547 185.47427063 -129.93228047 181.94961073 -125.14453125 178.4296875 C-117.73980537 172.98363105 -110.34575634 167.52542234 -103 162 C-93.24330499 154.66108784 -83.40038207 147.43979989 -73.56347656 140.20898438 C-65.3514643 134.17122526 -57.14566232 128.12710556 -49 122 C-39.18495729 114.61719915 -29.28446966 107.35074438 -19.38623047 100.08007812 C-17.63975953 98.79711482 -15.89357965 97.5137552 -14.14770508 96.22998047 C-12.50890414 95.02494713 -10.8694548 93.82079493 -9.22924805 92.61767578 C-6.12419931 90.33406673 -3.06297375 88.05183094 -0.0859375 85.6015625 C2 84 2 84 4 84 C-1.2012716 77.8484145 -6.76087882 72.14845575 -12.5 66.5 C-21.60136534 57.5424161 -21.60136534 57.5424161 -25.1875 53.3125 C-30.88780956 46.6720697 -37.28392947 40.6512394 -43.5 34.5 C-58.43681 19.71897496 -58.43681 19.71897496 -63.60791016 13.61914062 C-65.76168878 11.11407927 -68.08552492 8.81975625 -70.4375 6.5 C-71.30246094 5.6440625 -72.16742188 4.788125 -73.05859375 3.90625 C-73.69925781 3.2771875 -74.33992187 2.648125 -75 2 C-74.67 1.01 -74.34 0.02 -74 -1 C-71.51904297 -2.15087891 -71.51904297 -2.15087891 -68.2421875 -3.2265625 C-67.05882812 -3.6184375 -65.87546875 -4.0103125 -64.65625 -4.4140625 C-63.4084375 -4.81367187 -62.160625 -5.21328125 -60.875 -5.625 C-59.65039062 -6.03234375 -58.42578125 -6.4396875 -57.1640625 -6.859375 C-37.24374018 -13.3701297 -17.52416586 -12.39027462 0 0 Z " fill="#F69E20" transform="translate(311,45)"/>
<path d="M0 0 C-11.09603619 8.55289858 -22.29410299 16.95078615 -33.59277344 25.23388672 C-37.56665117 28.14940716 -41.53301618 31.07511027 -45.5 34 C-50.23615531 37.49118136 -54.97321534 40.98109811 -59.71484375 44.46484375 C-67.83971746 50.43743304 -75.93940618 56.44087274 -84 62.5 C-92.83960249 69.14470604 -101.72940267 75.71854559 -110.64111328 82.26611328 C-114.59679612 85.17371621 -118.54821092 88.08710842 -122.5 91 C-127.28347453 94.52572937 -132.06771953 98.05038927 -136.85546875 101.5703125 C-144.26019655 107.01637037 -151.65413692 112.4747175 -159 118 C-172.53710076 128.17883549 -186.17660044 138.21312331 -200 148 C-198.65972043 150.98093009 -197.18468111 153.06345315 -194.87423706 155.36627197 C-194.23201202 156.01124634 -193.58978699 156.6562207 -192.92810059 157.32073975 C-192.22463501 158.01701477 -191.52116943 158.71328979 -190.79638672 159.43066406 C-190.0548233 160.17251953 -189.31325989 160.914375 -188.54922485 161.67871094 C-186.09742329 164.12911939 -183.63861395 166.572368 -181.1796875 169.015625 C-179.47817175 170.71341057 -177.77709708 172.41163829 -176.07644653 174.11029053 C-171.59935194 178.57974916 -167.11628362 183.04316914 -162.63195801 187.50537109 C-158.05701531 192.05985468 -153.48772952 196.62000567 -148.91796875 201.1796875 C-139.95085005 210.12535692 -130.97760292 219.0648529 -122 228 C-124.88323063 230.21580998 -127.60305168 231.87479621 -130.921875 233.375 C-131.86546875 233.80296875 -132.8090625 234.2309375 -133.78125 234.671875 C-134.7609375 235.11015625 -135.740625 235.5484375 -136.75 236 C-137.71421875 236.43828125 -138.6784375 236.8765625 -139.671875 237.328125 C-142.43820127 238.5759787 -145.21359903 239.7976985 -148 241 C-148.73637695 241.31775391 -149.47275391 241.63550781 -150.23144531 241.96289062 C-158.91938655 245.48514257 -168.43712254 245.3855737 -177.1875 242.0625 C-189.73688042 235.84447156 -199.32417198 226.10528797 -209.05078125 216.27734375 C-210.36148747 214.96356988 -211.67279411 213.65039479 -212.98466492 212.33778381 C-215.71289802 209.604984 -218.43619572 206.86739924 -221.15551758 204.12573242 C-224.62270136 200.63018513 -228.09857754 197.1434475 -231.57774067 193.65982723 C-234.9260799 190.30631039 -238.26974008 186.94814311 -241.61328125 183.58984375 C-242.55459113 182.64571279 -242.55459113 182.64571279 -243.51491737 181.68250847 C-249.30521565 175.86976244 -255.05302419 170.08379339 -260.38227844 163.83985901 C-263.60278101 160.1771331 -267.09945169 156.77912928 -270.55859375 153.34375 C-271.34774673 152.55601196 -272.13689972 151.76827393 -272.94996643 150.95666504 C-275.44345012 148.46872898 -277.94040784 145.98431376 -280.4375 143.5 C-282.14020587 141.8023159 -283.84268207 140.10440142 -285.54492188 138.40625 C-289.69396412 134.2681672 -293.84585576 130.13296065 -298 126 C-295.71352102 123.71352102 -293.90976626 122.99613656 -290.921875 121.76953125 C-289.25402954 121.07851318 -289.25402954 121.07851318 -287.55249023 120.37353516 C-286.93977264 120.12210754 -286.32705505 119.87067993 -285.69577026 119.6116333 C-282.19454228 118.17366916 -278.70123503 116.7166491 -275.20703125 115.26171875 C-274.42034561 114.93453857 -273.63365997 114.6073584 -272.82313538 114.27026367 C-261.66608843 109.62256984 -250.55469335 104.86699935 -239.4375 100.125 C-237.1275445 99.14024854 -234.81756709 98.15554848 -232.50756836 97.17089844 C-227.76301871 95.14833569 -223.01865015 93.12534894 -218.27441406 91.10205078 C-207.28750572 86.41657187 -196.29924532 81.73426808 -185.31057739 77.05291748 C-181.91644269 75.60678661 -178.52253994 74.1601125 -175.12866211 72.71337891 C-165.78312713 68.73095673 -156.43446397 64.75729882 -147.06640625 60.828125 C-138.8324754 57.37150645 -130.64803691 53.80801756 -122.47183228 50.21737671 C-105.05815843 42.57561326 -87.56458589 35.13266118 -70.03686523 27.75683594 C-68.16258903 26.96811945 -66.28832131 26.17938281 -64.4140625 25.390625 C-63.50952835 25.01000916 -62.6049942 24.62939331 -61.67304993 24.23724365 C-53.99652972 21.00440448 -46.3388349 17.72947364 -38.6875 14.4375 C-35.50908353 13.07379953 -32.33018467 11.71123519 -29.15087891 10.34960938 C-26.94955217 9.4067197 -24.74874736 8.46261098 -22.54833984 7.51757812 C-19.16063916 6.06604347 -15.76852471 4.62535687 -12.375 3.1875 C-11.35365967 2.74784912 -10.33231934 2.30819824 -9.2800293 1.85522461 C-7.88457886 1.26753296 -7.88457886 1.26753296 -6.4609375 0.66796875 C-5.23576416 0.14626099 -5.23576416 0.14626099 -3.98583984 -0.38598633 C-2 -1 -2 -1 0 0 Z " fill="#254FA2" transform="translate(309,133)"/>
</svg>
